<?xml version="1.0" encoding="UTF-8" standalone="no"?>
<svg
   xmlns:dc="http://purl.org/dc/elements/1.1/"
   xmlns:cc="http://creativecommons.org/ns#"
   xmlns:rdf="http://www.w3.org/1999/02/22-rdf-syntax-ns#"
   xmlns:svg="http://www.w3.org/2000/svg"
   xmlns="http://www.w3.org/2000/svg"
   xmlns:sodipodi="http://sodipodi.sourceforge.net/DTD/sodipodi-0.dtd"
   xmlns:inkscape="http://www.inkscape.org/namespaces/inkscape"
   version="1.0"
   width="16.000000pt"
   height="16.000000pt"
   viewBox="0 0 16.000000 16.000000"
   preserveAspectRatio="xMidYMid meet"
   id="svg8"
   sodipodi:docname="safari-pinned-tab.svg"
   inkscape:version="0.92.3 (2405546, 2018-03-11)">
  <defs
     id="defs12" />
  <sodipodi:namedview
     pagecolor="#ffffff"
     bordercolor="#666666"
     borderopacity="1"
     objecttolerance="10"
     gridtolerance="10"
     guidetolerance="10"
     inkscape:pageopacity="0"
     inkscape:pageshadow="2"
     inkscape:window-width="1920"
     inkscape:window-height="1017"
     id="namedview10"
     showgrid="false"
     inkscape:zoom="22.125"
     inkscape:cx="14.084778"
     inkscape:cy="4.4717262"
     inkscape:window-x="-8"
     inkscape:window-y="-8"
     inkscape:window-maximized="1"
     inkscape:current-layer="svg8" />
  <metadata
     id="metadata2">
Created by potrace 1.11, written by Peter Selinger 2001-2013
<rdf:RDF>
  <cc:Work
     rdf:about="">
    <dc:format>image/svg+xml</dc:format>
    <dc:type
       rdf:resource="http://purl.org/dc/dcmitype/StillImage" />
    <dc:title></dc:title>
  </cc:Work>
</rdf:RDF>
</metadata>
  <path
     inkscape:export-ydpi="96"
     inkscape:export-xdpi="96"
     inkscape:connector-curvature="0"
     id="path846"
     d="m 8.0593053,0.5423732 a 7.4997106,7.4998418 0 0 0 -7.4860851,7.221935 c 0.02126,-0.369501 0.08244,-0.606018 0.246488,-0.939077 0.462529,-0.939678 1.471276,-1.500696 2.507141,-1.466167 0.06189,-0.127294 0.366461,-0.603265 0.738661,-1.149524 1.05977,-1.555376 2.085926,-2.68864 2.9415842,-3.24936601 0.4921263,-0.32249399 0.9654024,-0.44840799 1.27855,-0.33989399 0.2837154,0.09831 0.700183,0.446565 1.0588017,0.88559 1.2041889,1.474094 3.0736499,5.336843 4.7433439,9.8004108 0.131571,0.351531 0.25119,0.669833 0.265859,0.70731 0.02362,0.05992 6.87e-4,0.103655 -0.185191,0.361987 -0.115272,0.160098 -0.27859,0.373575 -0.366249,0.479029 a 7.4997106,7.4998418 0 0 0 1.75681,-4.8124138 7.4997106,7.4998418 0 0 0 -7.499643,-7.49982 z m -7.4860851,7.221935 c -6.85e-4,0.01642 -0.0023,0.02955 -0.0048,0.0465 -7.09e-4,0.01545 -2.36e-4,0.02798 -7.09e-4,0.04305 a 7.4997106,7.4998418 0 0 1 0.0047,-0.08953 z m -0.0048,0.08953 a 7.4997106,7.4998418 0 0 0 -0.0094,0.18836 7.4997106,7.4998418 0 0 0 7.5000451,7.5001798 7.4997106,7.4998418 0 0 0 4.9991167,-1.919998 c -0.03378,0.0303 -0.0737,0.06705 -0.07936,0.06705 -0.01417,0 -0.04205,-0.04305 -0.06472,-0.09573 -0.02362,-0.05265 -0.30514,-0.802266 -0.627855,-1.665753 C 10.780853,7.8998962 9.8511426,5.8125022 9.0133183,4.5788992 8.7415788,4.1787822 8.3792522,3.8196752 8.1812347,3.7541492 c -0.3549812,-0.117455 -0.8323436,0.0015 -1.2738964,0.316642 -0.2371111,0.169361 -0.7374811,0.653065 -0.9898271,0.956905 -0.254165,0.306017 -0.465104,0.610262 -0.636759,0.919317 -0.06378,0.115048 -0.122595,0.209281 -0.130154,0.209281 -3.54e-4,0 -0.0071,-0.0053 -0.0071,-0.0053 0.760627,0.76427 0.973218,1.851859 0.541043,2.831564 -0.264464,0.599529 -0.825069,1.1294748 -1.457623,1.3778028 -0.440348,0.17287 -1.005654,0.228542 -1.480087,0.145721 -0.944262,-0.164825 -1.739496,-0.8387818 -2.05947,-1.7456038 -0.09874,-0.279991 -0.13228,-0.542043 -0.118579,-0.906512 z m 2.590453,-1.577014 c -0.630452,0.01793 -1.230056,0.358388 -1.527755,0.956905 -0.06992,0.140494 -0.140783,0.320761 -0.15779,0.400748 -0.07724,0.364462 -0.0071,0.832879 0.173617,1.16696 0.137948,0.254154 0.495078,0.588385 0.762708,0.713901 0.117398,0.05505 0.283692,0.117725 0.369744,0.139527 0.208576,0.05287 0.656601,0.054 0.868909,0.0022 0.30951,-0.0759 0.572297,-0.221988 0.809597,-0.449578 0.343595,-0.329529 0.504857,-0.666916 0.532896,-1.116584 0.03637,-0.583413 -0.24063,-1.152343 -0.72241,-1.483994 -0.341942,-0.235382 -0.731315,-0.34056 -1.109563,-0.329821 z M 13.776032,12.884462 c -0.137476,0.160827 -0.428372,0.461233 -0.620886,0.64762 a 7.4997106,7.4998418 0 0 0 0.620936,-0.647625 z"
     style="fill:#000000;fill-opacity:1;stroke-width:0.04412255" />
</svg>
